  <svg
        width="1em"
        height="1em"
        viewBox="0 0 24 24"
        fill="currentColor"
        xmlns="http://www.w3.org/2000/svg"
      >
        <path d="M22.002 14.5759C22.002 12.5586 20.5957 10.8207 18.627 10.1379C19.5332 9.3931 20.127 8.27586 20.127 7.03448C20.127 4.8 18.3145 3 16.0645 3C14.502 3 13.127 3.83793 12.4395 5.20345C12.3145 5.17241 12.1582 5.17241 12.002 5.17241C11.8457 5.17241 11.6895 5.17241 11.5645 5.20345C10.877 3.83793 9.50195 3 7.93945 3C5.68945 3 3.87695 4.8 3.87695 7.03448C3.87695 8.27586 4.4707 9.42414 5.37695 10.1379C3.4082 10.8517 2.00195 12.5586 2.00195 14.5759V17.2759H5.4082C5.2207 17.8345 5.12695 18.4241 5.12695 19.0448V21H18.877V19.0448C18.877 18.4241 18.7832 17.8345 18.5957 17.2759H22.002V14.5759ZM16.0645 4.24138C17.627 4.24138 18.877 5.48276 18.877 7.03448C18.877 8.36897 17.9395 9.48621 16.6895 9.76552C16.6582 7.84138 15.4395 6.19655 13.7207 5.51379C14.2207 4.73793 15.0957 4.24138 16.0645 4.24138ZM15.4395 9.82759C15.4395 11.7207 13.9082 13.2414 12.002 13.2414C10.0957 13.2414 8.56445 11.7207 8.56445 9.82759C8.56445 7.93448 10.0957 6.41379 12.002 6.41379C13.9082 6.41379 15.4395 7.93448 15.4395 9.82759ZM7.93945 4.24138C8.9082 4.24138 9.7832 4.73793 10.2832 5.51379C8.56445 6.19655 7.3457 7.84138 7.31445 9.76552C6.06445 9.48621 5.12695 8.36897 5.12695 7.03448C5.12695 5.48276 6.37695 4.24138 7.93945 4.24138ZM3.25195 16.0345V14.5759C3.25195 12.6517 5.0332 11.069 7.25195 11.069H7.50195C7.7832 12.0931 8.4082 12.9621 9.2207 13.5517C7.87695 13.9862 6.75195 14.8862 6.0332 16.0345H3.25195ZM17.627 19.7586H6.37695V19.0448C6.37695 16.531 8.5332 14.4828 11.1895 14.4828H12.8145C15.4707 14.4828 17.627 16.531 17.627 19.0448V19.7586ZM20.752 16.0345H18.002C17.2832 14.8862 16.1582 14.0172 14.8145 13.5517C15.627 12.931 16.252 12.0621 16.5332 11.069H16.7832C18.9707 11.069 20.7832 12.6517 20.7832 14.5759V16.0345H20.752Z" />
      </svg>