<svg width="1em" height="1em" viewBox="0 0 25 25" fill="none" xmlns="http://www.w3.org/2000/svg">
<g clip-path="url(#clip0_568_77843)">
<mask id="path-1-inside-1_568_77843" fill="white">
<path fill-rule="evenodd" clip-rule="evenodd" d="M24.2689 0.948941L24.3918 0.866962C24.4779 0.995983 24.5142 1.15185 24.4941 1.30569C24.4745 1.45954 24.3994 1.60097 24.2822 1.70402L16.953 8.11844L19.0861 9.23057C19.1848 9.28224 19.2691 9.3593 19.3291 9.45369C19.3892 9.54807 19.4238 9.6566 19.429 9.7683C19.4336 9.8803 19.4094 9.99142 19.358 10.0907C19.3067 10.1903 19.2298 10.2743 19.1357 10.3349L13.0097 14.2781L15.4781 15.5899C15.5797 15.6438 15.6646 15.7243 15.7246 15.8228C15.7841 15.9212 15.8158 16.0338 15.817 16.149C15.8182 16.2642 15.7881 16.3773 15.7298 16.4766C15.7131 16.506 15.6934 16.5337 15.672 16.5597C15.6213 16.622 15.5589 16.6743 15.4879 16.7139L1.44967 24.5034C1.31112 24.5805 1.1489 24.6033 0.99419 24.5674C0.840058 24.5316 0.704405 24.4395 0.613766 24.3091C0.523711 24.1792 0.485034 24.0198 0.505238 23.8626C0.51332 23.8005 0.530639 23.7404 0.555462 23.6842C0.59414 23.5979 0.65129 23.5205 0.72461 23.4585L9.22965 16.2073L6.46795 14.7393C6.36866 14.687 6.28553 14.6091 6.22607 14.5142C6.16661 14.4191 6.13312 14.3101 6.12908 14.1978C6.12447 14.0861 6.15044 13.9747 6.20297 13.8756C6.23068 13.8234 6.26533 13.7752 6.30574 13.7328C6.3421 13.695 6.38309 13.6615 6.42754 13.6335L12.3118 9.94005L9.89006 8.65242C9.78615 8.59729 9.70013 8.51503 9.64009 8.4143C9.61065 8.36436 9.58814 8.31097 9.57313 8.25555C9.55755 8.19898 9.55004 8.14009 9.55062 8.08093C9.55177 7.96345 9.58583 7.84886 9.6476 7.74956C9.70994 7.64998 9.79769 7.56974 9.90276 7.51693L23.5738 0.652214C23.713 0.582363 23.8729 0.565334 24.023 0.604877C24.1737 0.644132 24.3047 0.737362 24.3912 0.866383L24.2689 0.948941ZM17.5193 9.85547L11.4007 13.7937C11.3073 13.8543 11.2311 13.938 11.1797 14.037C11.1283 14.136 11.1035 14.2465 11.1081 14.358C11.1116 14.4391 11.1306 14.519 11.1635 14.5929C11.1757 14.6201 11.1901 14.6466 11.2063 14.672C11.2651 14.7661 11.3482 14.8432 11.447 14.8957L13.8387 16.1669L6.41657 20.2857L10.7744 16.5707C10.8535 16.5029 10.9153 16.4171 10.9534 16.3202C10.9771 16.2612 10.9915 16.1995 10.9967 16.1368C10.9996 16.0964 10.999 16.0557 10.995 16.015C10.9834 15.9117 10.9471 15.8124 10.8887 15.7261C10.8304 15.6398 10.7519 15.5691 10.6601 15.52L8.0341 14.1245L14.1481 10.024L14.23 9.96891L14.2266 9.86991C14.222 9.75791 14.1885 9.64939 14.1285 9.55472C14.069 9.46004 13.9853 9.38269 13.8872 9.33074L11.5815 8.10546L19.6674 4.0443L15.4083 7.77179C15.3666 7.80787 15.3304 7.84914 15.2997 7.89418C15.2727 7.93459 15.2501 7.97788 15.2328 8.02378C15.1952 8.12104 15.1826 8.22553 15.1946 8.32886L15.2034 8.38024C15.2206 8.46453 15.2541 8.54505 15.3038 8.61606C15.3626 8.70178 15.4417 8.77135 15.5341 8.81955L17.5193 9.85547ZM6.89745 12.2509V12.2223C6.82356 12.2003 6.75428 12.1657 6.69193 12.119C6.58226 12.0359 6.502 11.9192 6.46333 11.7868C6.42523 11.6543 6.43101 11.5129 6.47949 11.3838C6.51528 11.2886 6.57301 11.204 6.64748 11.1365C6.67403 11.1122 6.70291 11.0903 6.73349 11.0706L6.81893 11.2043L6.73465 11.0698L8.72742 9.81853C8.79843 9.77149 8.87809 9.73887 8.96179 9.72299C9.04608 9.70711 9.13208 9.70827 9.21522 9.72617C9.29893 9.74435 9.37801 9.7787 9.44786 9.82777C9.51772 9.87654 9.57659 9.93918 9.62219 10.0113C9.66781 10.0835 9.69782 10.1643 9.71168 10.2483C9.72091 10.3052 9.72265 10.3629 9.71629 10.4198C9.71283 10.4472 9.70821 10.4746 9.70187 10.5017C9.68166 10.5846 9.64529 10.6625 9.59449 10.7312C9.54427 10.7999 9.48019 10.8576 9.41033 10.8986L7.41469 12.1519C7.31309 12.216 7.19532 12.2498 7.07583 12.2504L6.89745 12.2509ZM5.76367 12.9613V12.9356C5.74346 12.9298 5.72384 12.9232 5.70479 12.9154C5.65225 12.8946 5.60203 12.8666 5.55643 12.8319C5.44501 12.7488 5.36477 12.6313 5.3261 12.4979C5.28741 12.3646 5.29376 12.2223 5.34341 12.0928C5.39306 11.9628 5.48369 11.8529 5.60146 11.7792L5.61069 11.7734C5.6817 11.729 5.76078 11.6987 5.84391 11.6849C5.92646 11.671 6.01132 11.6736 6.09329 11.6923C6.14179 11.7037 6.18913 11.7203 6.23357 11.7426C6.26417 11.7576 6.29304 11.7752 6.32074 11.7948C6.38944 11.8433 6.44717 11.9051 6.49219 11.9764C6.53664 12.0477 6.56666 12.1268 6.58052 12.2096C6.59437 12.2924 6.59207 12.3773 6.57301 12.459C6.55454 12.541 6.51932 12.6183 6.47084 12.6867C6.42234 12.7552 6.36058 12.8135 6.28899 12.8579L6.28033 12.8634C6.17874 12.9274 6.06097 12.9615 5.94089 12.9615L5.76367 12.9613ZM18.1006 17.5884L18.096 17.591C18.0938 17.5922 18.0886 17.5948 18.0862 17.596C18.0129 17.6375 17.9374 17.6629 17.8553 17.6739C17.771 17.6851 17.6851 17.6797 17.6026 17.6571C17.5205 17.6349 17.4438 17.5962 17.3761 17.5437C17.3427 17.5177 17.3121 17.4883 17.285 17.4562C17.2573 17.4238 17.2331 17.3887 17.2123 17.3511C17.1707 17.2766 17.1447 17.1947 17.1348 17.1098C17.1256 17.0253 17.1338 16.9396 17.158 16.8579C17.1823 16.7762 17.2227 16.7003 17.277 16.6342C17.33 16.5698 17.3953 16.5159 17.4692 16.4766C17.4703 16.476 17.472 16.4752 17.4732 16.4746L17.479 16.471C17.6274 16.3885 17.8022 16.3683 17.965 16.4151C18.1284 16.4616 18.2658 16.5709 18.3483 16.7191C18.4308 16.8671 18.4511 17.042 18.4044 17.2051C18.3778 17.2983 18.3305 17.3835 18.267 17.4548C18.2196 17.5079 18.1637 17.5532 18.1006 17.5884ZM14.248 18.2632L16.3088 17.1196C16.3579 17.0914 16.4127 17.0689 16.4698 17.0544C16.4946 17.0481 16.5195 17.0435 16.5449 17.0403C16.6292 17.0296 16.7147 17.0357 16.7966 17.0585C16.8785 17.081 16.9548 17.12 17.0217 17.1725C17.0881 17.2247 17.1442 17.2902 17.1851 17.3645C17.2261 17.4386 17.2521 17.5203 17.2613 17.6048C17.2706 17.6891 17.263 17.7746 17.2388 17.856C17.2151 17.9376 17.1747 18.0133 17.121 18.079C17.0673 18.1449 17.001 18.1992 16.9259 18.239L14.8686 19.3808C14.82 19.4074 14.7692 19.4279 14.716 19.4415C14.6878 19.4487 14.6595 19.4539 14.6307 19.4571C14.5833 19.4625 14.5348 19.4625 14.4875 19.4573C14.4517 19.4533 14.4165 19.4463 14.3824 19.4365C14.3017 19.4135 14.226 19.3748 14.1601 19.3226C14.1267 19.2957 14.0961 19.2657 14.0684 19.2328C14.0424 19.2016 14.0193 19.1678 13.9991 19.1323C13.9581 19.059 13.9328 18.9782 13.9229 18.8948C13.9131 18.8113 13.92 18.7268 13.9437 18.6463C13.9668 18.5654 14.0055 18.4901 14.0574 18.4243C14.11 18.3585 14.1746 18.3037 14.248 18.2632Z"/>
</mask>
<path fill-rule="evenodd" clip-rule="evenodd" d="M24.2689 0.948941L24.3918 0.866962C24.4779 0.995983 24.5142 1.15185 24.4941 1.30569C24.4745 1.45954 24.3994 1.60097 24.2822 1.70402L16.953 8.11844L19.0861 9.23057C19.1848 9.28224 19.2691 9.3593 19.3291 9.45369C19.3892 9.54807 19.4238 9.6566 19.429 9.7683C19.4336 9.8803 19.4094 9.99142 19.358 10.0907C19.3067 10.1903 19.2298 10.2743 19.1357 10.3349L13.0097 14.2781L15.4781 15.5899C15.5797 15.6438 15.6646 15.7243 15.7246 15.8228C15.7841 15.9212 15.8158 16.0338 15.817 16.149C15.8182 16.2642 15.7881 16.3773 15.7298 16.4766C15.7131 16.506 15.6934 16.5337 15.672 16.5597C15.6213 16.622 15.5589 16.6743 15.4879 16.7139L1.44967 24.5034C1.31112 24.5805 1.1489 24.6033 0.99419 24.5674C0.840058 24.5316 0.704405 24.4395 0.613766 24.3091C0.523711 24.1792 0.485034 24.0198 0.505238 23.8626C0.51332 23.8005 0.530639 23.7404 0.555462 23.6842C0.59414 23.5979 0.65129 23.5205 0.72461 23.4585L9.22965 16.2073L6.46795 14.7393C6.36866 14.687 6.28553 14.6091 6.22607 14.5142C6.16661 14.4191 6.13312 14.3101 6.12908 14.1978C6.12447 14.0861 6.15044 13.9747 6.20297 13.8756C6.23068 13.8234 6.26533 13.7752 6.30574 13.7328C6.3421 13.695 6.38309 13.6615 6.42754 13.6335L12.3118 9.94005L9.89006 8.65242C9.78615 8.59729 9.70013 8.51503 9.64009 8.4143C9.61065 8.36436 9.58814 8.31097 9.57313 8.25555C9.55755 8.19898 9.55004 8.14009 9.55062 8.08093C9.55177 7.96345 9.58583 7.84886 9.6476 7.74956C9.70994 7.64998 9.79769 7.56974 9.90276 7.51693L23.5738 0.652214C23.713 0.582363 23.8729 0.565334 24.023 0.604877C24.1737 0.644132 24.3047 0.737362 24.3912 0.866383L24.2689 0.948941ZM17.5193 9.85547L11.4007 13.7937C11.3073 13.8543 11.2311 13.938 11.1797 14.037C11.1283 14.136 11.1035 14.2465 11.1081 14.358C11.1116 14.4391 11.1306 14.519 11.1635 14.5929C11.1757 14.6201 11.1901 14.6466 11.2063 14.672C11.2651 14.7661 11.3482 14.8432 11.447 14.8957L13.8387 16.1669L6.41657 20.2857L10.7744 16.5707C10.8535 16.5029 10.9153 16.4171 10.9534 16.3202C10.9771 16.2612 10.9915 16.1995 10.9967 16.1368C10.9996 16.0964 10.999 16.0557 10.995 16.015C10.9834 15.9117 10.9471 15.8124 10.8887 15.7261C10.8304 15.6398 10.7519 15.5691 10.6601 15.52L8.0341 14.1245L14.1481 10.024L14.23 9.96891L14.2266 9.86991C14.222 9.75791 14.1885 9.64939 14.1285 9.55472C14.069 9.46004 13.9853 9.38269 13.8872 9.33074L11.5815 8.10546L19.6674 4.0443L15.4083 7.77179C15.3666 7.80787 15.3304 7.84914 15.2997 7.89418C15.2727 7.93459 15.2501 7.97788 15.2328 8.02378C15.1952 8.12104 15.1826 8.22553 15.1946 8.32886L15.2034 8.38024C15.2206 8.46453 15.2541 8.54505 15.3038 8.61606C15.3626 8.70178 15.4417 8.77135 15.5341 8.81955L17.5193 9.85547ZM6.89745 12.2509V12.2223C6.82356 12.2003 6.75428 12.1657 6.69193 12.119C6.58226 12.0359 6.502 11.9192 6.46333 11.7868C6.42523 11.6543 6.43101 11.5129 6.47949 11.3838C6.51528 11.2886 6.57301 11.204 6.64748 11.1365C6.67403 11.1122 6.70291 11.0903 6.73349 11.0706L6.81893 11.2043L6.73465 11.0698L8.72742 9.81853C8.79843 9.77149 8.87809 9.73887 8.96179 9.72299C9.04608 9.70711 9.13208 9.70827 9.21522 9.72617C9.29893 9.74435 9.37801 9.7787 9.44786 9.82777C9.51772 9.87654 9.57659 9.93918 9.62219 10.0113C9.66781 10.0835 9.69782 10.1643 9.71168 10.2483C9.72091 10.3052 9.72265 10.3629 9.71629 10.4198C9.71283 10.4472 9.70821 10.4746 9.70187 10.5017C9.68166 10.5846 9.64529 10.6625 9.59449 10.7312C9.54427 10.7999 9.48019 10.8576 9.41033 10.8986L7.41469 12.1519C7.31309 12.216 7.19532 12.2498 7.07583 12.2504L6.89745 12.2509ZM5.76367 12.9613V12.9356C5.74346 12.9298 5.72384 12.9232 5.70479 12.9154C5.65225 12.8946 5.60203 12.8666 5.55643 12.8319C5.44501 12.7488 5.36477 12.6313 5.3261 12.4979C5.28741 12.3646 5.29376 12.2223 5.34341 12.0928C5.39306 11.9628 5.48369 11.8529 5.60146 11.7792L5.61069 11.7734C5.6817 11.729 5.76078 11.6987 5.84391 11.6849C5.92646 11.671 6.01132 11.6736 6.09329 11.6923C6.14179 11.7037 6.18913 11.7203 6.23357 11.7426C6.26417 11.7576 6.29304 11.7752 6.32074 11.7948C6.38944 11.8433 6.44717 11.9051 6.49219 11.9764C6.53664 12.0477 6.56666 12.1268 6.58052 12.2096C6.59437 12.2924 6.59207 12.3773 6.57301 12.459C6.55454 12.541 6.51932 12.6183 6.47084 12.6867C6.42234 12.7552 6.36058 12.8135 6.28899 12.8579L6.28033 12.8634C6.17874 12.9274 6.06097 12.9615 5.94089 12.9615L5.76367 12.9613ZM18.1006 17.5884L18.096 17.591C18.0938 17.5922 18.0886 17.5948 18.0862 17.596C18.0129 17.6375 17.9374 17.6629 17.8553 17.6739C17.771 17.6851 17.6851 17.6797 17.6026 17.6571C17.5205 17.6349 17.4438 17.5962 17.3761 17.5437C17.3427 17.5177 17.3121 17.4883 17.285 17.4562C17.2573 17.4238 17.2331 17.3887 17.2123 17.3511C17.1707 17.2766 17.1447 17.1947 17.1348 17.1098C17.1256 17.0253 17.1338 16.9396 17.158 16.8579C17.1823 16.7762 17.2227 16.7003 17.277 16.6342C17.33 16.5698 17.3953 16.5159 17.4692 16.4766C17.4703 16.476 17.472 16.4752 17.4732 16.4746L17.479 16.471C17.6274 16.3885 17.8022 16.3683 17.965 16.4151C18.1284 16.4616 18.2658 16.5709 18.3483 16.7191C18.4308 16.8671 18.4511 17.042 18.4044 17.2051C18.3778 17.2983 18.3305 17.3835 18.267 17.4548C18.2196 17.5079 18.1637 17.5532 18.1006 17.5884ZM14.248 18.2632L16.3088 17.1196C16.3579 17.0914 16.4127 17.0689 16.4698 17.0544C16.4946 17.0481 16.5195 17.0435 16.5449 17.0403C16.6292 17.0296 16.7147 17.0357 16.7966 17.0585C16.8785 17.081 16.9548 17.12 17.0217 17.1725C17.0881 17.2247 17.1442 17.2902 17.1851 17.3645C17.2261 17.4386 17.2521 17.5203 17.2613 17.6048C17.2706 17.6891 17.263 17.7746 17.2388 17.856C17.2151 17.9376 17.1747 18.0133 17.121 18.079C17.0673 18.1449 17.001 18.1992 16.9259 18.239L14.8686 19.3808C14.82 19.4074 14.7692 19.4279 14.716 19.4415C14.6878 19.4487 14.6595 19.4539 14.6307 19.4571C14.5833 19.4625 14.5348 19.4625 14.4875 19.4573C14.4517 19.4533 14.4165 19.4463 14.3824 19.4365C14.3017 19.4135 14.226 19.3748 14.1601 19.3226C14.1267 19.2957 14.0961 19.2657 14.0684 19.2328C14.0424 19.2016 14.0193 19.1678 13.9991 19.1323C13.9581 19.059 13.9328 18.9782 13.9229 18.8948C13.9131 18.8113 13.92 18.7268 13.9437 18.6463C13.9668 18.5654 14.0055 18.4901 14.0574 18.4243C14.11 18.3585 14.1746 18.3037 14.248 18.2632Z" fill="currentColor" stroke="white" stroke-width="0.4" mask="url(#path-1-inside-1_568_77843)"/>
</g>
<defs>
<clipPath id="clip0_568_77843">
<rect width="24" height="24" fill="white" transform="translate(0.5 0.583984)"/>
</clipPath>
</defs>
</svg>
