 <svg
        width="1em"
        height="1em"
        viewBox="0 0 24 24"
        fill="currentColor"
        xmlns="http://www.w3.org/2000/svg"
      >
        <path
          fillRule="evenodd"
          clipRule="evenodd"
          d="M19.1195 10.4945C19.7788 9.83517 20.8478 9.83517 21.5071 10.4945C22.1665 11.1538 22.1665 12.2228 21.5071 12.8821C20.8478 13.5415 19.7788 13.5415 19.1195 12.8821C18.4602 12.2228 18.4602 11.1538 19.1195 10.4945Z"
        />
        <path
          fillRule="evenodd"
          clipRule="evenodd"
          d="M10.8089 10.4945C11.4683 9.83517 12.5373 9.83517 13.1966 10.4945C13.8559 11.1538 13.8559 12.2228 13.1966 12.8821C12.5373 13.5415 11.4683 13.5415 10.8089 12.8821C10.1496 12.2228 10.1496 11.1538 10.8089 10.4945Z"
        />
        <path
          fillRule="evenodd"
          clipRule="evenodd"
          d="M2.49645 10.4945C3.15577 9.83517 4.22476 9.83517 4.88408 10.4945C5.54341 11.1538 5.54341 12.2228 4.88408 12.8821C4.22476 13.5415 3.15577 13.5415 2.49645 12.8821C1.83712 12.2228 1.83712 11.1538 2.49645 10.4945Z"
        />
      </svg>