 <svg
        width="1em"
        height="1em"
        viewBox="0 0 24 24"
        fill="currentColor"
        xmlns="http://www.w3.org/2000/svg"
      >
        <path d="M18.925 2C18.5426 2 18.2326 2.3198 18.2326 2.7143V5.32356C14.6684 1.76328 8.98166 1.85829 5.53094 5.53567C3.9047 7.26874 2.99747 9.58775 3.00197 12C3.00197 12.3945 3.31192 12.7143 3.69429 12.7143C4.07665 12.7143 4.38657 12.3945 4.38657 12C4.38742 7.66061 7.79757 4.14352 12.0034 4.1444C14.1395 4.14482 16.1771 5.07081 17.6193 6.69641L14.5524 7.75139C14.1892 7.87606 13.9927 8.28091 14.1135 8.65565C14.2343 9.0304 14.6267 9.23318 14.9899 9.1085L19.1438 7.67994C19.4273 7.58251 19.6183 7.30829 19.6173 6.99996V2.71426C19.6173 2.3198 19.3073 2 18.925 2Z" />
        <path d="M20.3098 11.2852C19.9274 11.2852 19.6175 11.605 19.6175 11.9995C19.6166 16.3388 16.2065 19.8559 12.0006 19.855C9.86458 19.8546 7.82698 18.9286 6.38474 17.303L9.45163 16.248C9.81485 16.1234 10.0114 15.7185 9.89054 15.3438C9.7697 14.969 9.37732 14.7662 9.0141 14.8909L4.86027 16.3195C4.57673 16.4169 4.38579 16.6911 4.38672 16.9995V21.2852C4.38672 21.6797 4.69668 21.9995 5.07904 21.9995C5.4614 21.9995 5.77136 21.6797 5.77136 21.2852V18.6759C9.33562 22.2361 15.0224 22.1412 18.4731 18.4638C20.0993 16.7307 21.0065 14.4117 21.002 11.9995C21.0021 11.605 20.6922 11.2852 20.3098 11.2852Z" />
      </svg>