<svg width="1em" height="1em" viewBox="0 0 24 24" fill="none" xmlns="http://www.w3.org/2000/svg">
<path d="M23.3877 20.5456C23.3159 20.4737 23.2183 20.4333 23.1166 20.4333H21.9666V3.18332C21.9649 1.70206 20.7646 0.501707 19.2833 0.5H3.18332C1.70206 0.501707 0.501707 1.70206 0.5 3.18332C0.499955 3.28498 0.54034 3.3825 0.61226 3.45442C0.684135 3.5263 0.78166 3.56668 0.883363 3.56668H5.1V20.8167C5.10171 22.2979 6.30206 23.4983 7.78332 23.5H20.8166C22.2979 23.4983 23.4982 22.2979 23.5 20.8167C23.5 20.715 23.4597 20.6175 23.3877 20.5456ZM1.30522 2.8C1.48747 1.90758 2.27253 1.26668 3.18332 1.26668C4.09411 1.26668 4.87921 1.90758 5.06146 2.8H1.30522ZM7.78332 22.7333C6.72478 22.7333 5.86664 21.8752 5.86664 20.8166V3.18332C5.86673 2.46142 5.57496 1.77017 5.05759 1.26664H19.2833C20.3414 1.26789 21.1987 2.12527 21.2 3.18332V20.4333H10.0833C9.98166 20.4333 9.88413 20.4737 9.81222 20.5456C9.74034 20.6175 9.69995 20.715 9.69995 20.8167C9.7 21.8752 8.8419 22.7333 7.78332 22.7333ZM20.8167 22.7333H9.65764C10.0787 22.3217 10.3524 21.7828 10.4361 21.2H22.6948C22.5114 22.0917 21.7271 22.7322 20.8167 22.7333Z" fill="currentColor" stroke="currentColor" stroke-width="0.4"/>
<path d="M11.3997 15.5427L12.0317 14.9109C12.0707 14.8718 12.1296 14.86 12.1807 14.8812C12.2318 14.9023 12.2652 14.9522 12.2652 15.0075V15.9013C12.2657 16.2868 12.5782 16.5992 12.9638 16.5996H14.1026C14.4881 16.5992 14.8006 16.2868 14.8011 15.9013V15.0075C14.8012 14.9522 14.8345 14.9023 14.8856 14.8812C14.9367 14.86 14.9955 14.8717 15.0347 14.9107L15.6666 15.5427C15.9395 15.815 16.3813 15.815 16.6541 15.5427L17.4597 14.7374C17.5908 14.6065 17.6645 14.4289 17.6645 14.2436C17.6645 14.0583 17.5908 13.8806 17.4597 13.7497L16.8278 13.1174C16.7885 13.0784 16.7768 13.0195 16.7979 12.9684C16.8191 12.9173 16.8691 12.884 16.9244 12.8842H17.8179C18.2035 12.8838 18.5159 12.5714 18.5164 12.1858V11.0465C18.5159 10.661 18.2034 10.3486 17.8179 10.3483H16.9244C16.869 10.3484 16.819 10.3151 16.7978 10.2638C16.7767 10.2126 16.7885 10.1537 16.8278 10.1147L17.4597 9.48279C17.7322 9.20994 17.7322 8.7679 17.4597 8.49505L16.6541 7.68982C16.3813 7.41728 15.9394 7.41728 15.6666 7.68982L15.0347 8.32134C14.9957 8.36064 14.9368 8.3725 14.8856 8.35139C14.8344 8.33028 14.801 8.28032 14.8011 8.22493V7.33117C14.8006 6.9456 14.4881 6.63322 14.1026 6.63281H12.9638C12.5782 6.63322 12.2657 6.9456 12.2652 7.33117V8.22493C12.2653 8.28032 12.232 8.33023 12.1808 8.35139C12.1296 8.37255 12.0707 8.36078 12.0317 8.32152L11.3997 7.68978C11.1269 7.41737 10.6851 7.41733 10.4122 7.6896L9.60664 8.495C9.3341 8.76786 9.3341 9.20989 9.60664 9.48275L10.2386 10.1148C10.2778 10.1539 10.2896 10.2128 10.2685 10.2639C10.2473 10.3151 10.1973 10.3483 10.142 10.3482H9.24834C8.86282 10.3485 8.5503 10.6609 8.5498 11.0464V12.1857C8.5503 12.5713 8.86278 12.8837 9.24834 12.8841H10.1419C10.1973 12.884 10.2473 12.9172 10.2684 12.9684C10.2896 13.0196 10.2778 13.0785 10.2385 13.1175L9.60659 13.7494C9.47551 13.8803 9.40184 14.058 9.40184 14.2433C9.40184 14.4286 9.47551 14.6062 9.60659 14.7372L10.4122 15.5426C10.6851 15.8148 11.1268 15.8148 11.3997 15.5427ZM10.7805 13.6599C11.039 13.4016 11.1164 13.0129 10.9766 12.6753C10.8368 12.3377 10.5074 12.1175 10.1419 12.1175H9.31649V11.115H10.1419C10.5074 11.1151 10.8368 10.8949 10.9766 10.5573C11.1164 10.2196 11.0391 9.83103 10.7805 9.57272L10.1969 8.9891L10.9059 8.28028L11.4895 8.8639C11.7479 9.12234 12.1365 9.19965 12.4741 9.05981C12.8118 8.91997 13.0319 8.59051 13.0318 8.22507V7.39963H14.0344V8.22507C14.0343 8.59051 14.2544 8.92001 14.5921 9.05981C14.9297 9.1996 15.3184 9.1222 15.5767 8.86372L16.1603 8.28028L16.8693 8.9891L16.2857 9.57254C16.0272 9.83089 15.9498 10.2195 16.0896 10.5572C16.2294 10.8949 16.5588 11.115 16.9243 11.115H17.7498V12.1175H16.9244C16.559 12.1175 16.2295 12.3376 16.0897 12.6752C15.9498 13.0128 16.0272 13.4014 16.2857 13.6597L16.8693 14.2435L16.1603 14.9523L15.5767 14.3685C15.3182 14.1103 14.9297 14.0331 14.5922 14.1729C14.2546 14.3128 14.0345 14.6422 14.0344 15.0076V15.833H13.0319V15.0076C13.0318 14.6422 12.8117 14.3128 12.4741 14.1729C12.1365 14.0331 11.748 14.1104 11.4896 14.3687L10.906 14.9523L10.197 14.2435L10.7805 13.6599Z" fill="currentColor" stroke="currentColor" stroke-width="0.2"/>
<path d="M13.5331 13.4159C14.5265 13.4159 15.3319 12.6106 15.3319 11.6171C15.3319 10.6237 14.5266 9.81836 13.5331 9.81836C12.5397 9.81836 11.7344 10.6237 11.7344 11.6171C11.7356 12.6101 12.5402 13.4147 13.5331 13.4159ZM13.5331 10.5851C14.1032 10.5851 14.5652 11.0472 14.5652 11.6172C14.5652 12.1872 14.1032 12.6493 13.5331 12.6493C12.9631 12.6493 12.5011 12.1872 12.5011 11.6172C12.5018 11.0474 12.9634 10.5858 13.5331 10.5851Z" fill="currentColor" stroke="currentColor" stroke-width="0.2"/>
</svg>
