<svg width="1em" height="1em" viewBox="0 0 24 24" fill="none" xmlns="http://www.w3.org/2000/svg">
<path d="M12.4263 7.48168C10.9728 9.49484 8.2457 9.299 6.85864 7.47625C6.84727 7.50727 6.83382 7.53749 6.8184 7.56671C5.64292 9.3673 2.99583 9.40212 1.66438 7.54183C1.2475 6.97063 1.02671 6.27974 1.03504 5.57254C1.04002 4.85701 0.992996 4.13424 1.07709 3.42775C1.2733 1.78275 2.64681 0.606784 4.3092 0.604522C7.81937 0.599999 11.3297 0.598944 14.8401 0.601356C16.7462 0.601356 18.6519 0.59819 20.5575 0.604522C22.1186 0.60995 23.4293 1.67646 23.7448 3.19663C23.7945 3.4555 23.8179 3.7187 23.8149 3.98227C23.8149 4.66749 23.8506 5.3586 23.7756 6.03659C23.6174 7.45725 22.6354 8.51065 21.2411 8.84806C21.2049 8.85666 21.1696 8.86932 21.1054 8.88832C21.1054 9.12215 21.1054 9.36006 21.1054 9.59797C21.1023 9.9485 20.8758 10.1936 20.5629 10.1909C20.2501 10.1882 20.0258 9.94669 20.0204 9.5939C20.0177 9.36097 20.0204 9.12803 20.0204 8.88334C19.1121 8.70876 18.3973 8.2438 17.8534 7.48123C17.1753 8.40391 16.2842 8.91998 15.144 8.92133C14.0037 8.92269 13.1095 8.40888 12.4263 7.48168ZM11.8838 1.70631H7.36274V1.94874C7.36274 3.13873 7.36861 4.32827 7.36274 5.51826C7.35596 6.52371 7.85327 7.20487 8.72765 7.61691C10.2458 8.32883 11.8775 7.27905 11.8834 5.60375C11.8834 5.03928 11.8834 4.47301 11.8834 3.90945L11.8838 1.70631ZM12.977 1.69817C12.977 3.10707 12.9359 4.49426 12.9901 5.87784C13.0326 6.95928 13.9848 7.80597 15.0576 7.83809C15.3483 7.84927 15.6383 7.80174 15.9103 7.69834C16.1823 7.59494 16.4306 7.43779 16.6405 7.23626C16.8505 7.03473 17.0176 6.79297 17.1321 6.52538C17.2466 6.2578 17.306 5.96989 17.3068 5.67883C17.3154 4.39793 17.3068 3.11657 17.3068 1.83431C17.3068 1.79135 17.2996 1.74838 17.2946 1.69863L12.977 1.69817ZM18.3937 1.72441V1.90125C18.3937 3.14371 18.391 4.38617 18.3937 5.62862C18.3964 6.87108 19.3368 7.82633 20.5453 7.83809C21.7099 7.84939 22.7027 6.86836 22.729 5.66707C22.7425 5.0423 22.7425 4.41722 22.729 3.79185C22.7086 2.77147 21.9559 1.84698 20.9413 1.7425C20.1108 1.65656 19.2631 1.72441 18.3937 1.72441V1.72441ZM6.27723 1.68913C5.57375 1.68913 4.90373 1.68008 4.23461 1.68913C3.67422 1.7014 3.1405 1.93092 2.74602 2.32928C2.35153 2.72764 2.12712 3.26371 2.1201 3.82441C2.11196 4.41964 2.10066 5.01576 2.12779 5.60963C2.13984 5.90228 2.20003 6.19094 2.30592 6.46401C2.69654 7.44142 3.69389 7.98734 4.68536 7.79919C5.61353 7.62325 6.25191 6.80414 6.27361 5.73808C6.28627 5.12024 6.27723 4.50241 6.27723 3.88367C6.27768 3.16271 6.27768 2.44084 6.27768 1.68913H6.27723Z" fill="currentColor " stroke="currentColor " stroke-width="0.1"/>
<path d="M23.8181 17.4271C23.8253 20.7049 21.1506 23.3938 17.876 23.4001C14.5779 23.4069 11.8915 20.742 11.8838 17.4556C11.8766 14.1457 14.5476 11.46 17.8476 11.4568C21.1402 11.4568 23.8122 14.1253 23.8181 17.4271ZM22.733 17.4271C22.7324 16.1316 22.2173 14.8894 21.3011 13.9737C20.385 13.0581 19.1428 12.5441 17.8478 12.5448C16.5528 12.5454 15.3111 13.0607 14.3959 13.9773C13.4806 14.8938 12.9668 16.1365 12.9675 17.4321C12.9675 20.1273 15.1679 22.3214 17.8634 22.3141C19.156 22.309 20.3939 21.792 21.3065 20.8762C22.2191 19.9603 22.732 18.7202 22.733 17.4271Z" fill="currentColor " stroke="currentColor " stroke-width="0.1"/>
<path d="M4.82971 22.3122H7.62328C9.00989 22.3122 10.3961 22.3072 11.7827 22.3194C11.9523 22.3235 12.1168 22.3781 12.2551 22.4764C12.436 22.6121 12.4726 22.8323 12.3849 23.0508C12.3487 23.1557 12.2797 23.2461 12.188 23.3086C12.0964 23.3711 11.9871 23.4023 11.8763 23.3977C11.2433 23.4013 10.6104 23.3977 9.9774 23.3977H1.72735C1.67445 23.3977 1.62156 23.3977 1.56911 23.3977C1.26304 23.381 1.03834 23.1566 1.03336 22.8649C1.03159 22.7929 1.04437 22.7212 1.07094 22.6542C1.0975 22.5873 1.1373 22.5263 1.18795 22.4751C1.23861 22.4239 1.29908 22.3834 1.36574 22.3561C1.43239 22.3288 1.50387 22.3153 1.57589 22.3163C2.14103 22.3086 2.70616 22.3163 3.2713 22.3136H3.73109C3.73651 22.2312 3.74375 22.1657 3.74375 22.1005C3.74375 18.4071 3.74375 14.7133 3.74375 11.0193C3.74375 10.6828 3.86763 10.4811 4.12533 10.3983C4.35635 10.3241 4.61767 10.4028 4.73206 10.6208C4.7958 10.7551 4.82782 10.9023 4.82564 11.0509C4.83046 14.6693 4.83167 18.2877 4.82926 21.906L4.82971 22.3122Z" fill="currentColor " stroke="currentColor " stroke-width="0.1"/>
<path d="M22.7329 17.4266C22.7313 18.7191 22.2183 19.9584 21.3061 20.8737C20.3939 21.789 19.1566 22.3059 17.8646 22.3114C15.1692 22.3186 12.9692 20.1245 12.9688 17.4293C12.9684 16.7878 13.0944 16.1525 13.3395 15.5598C13.5846 14.967 13.9439 14.4283 14.3971 13.9745C14.8503 13.5206 15.3884 13.1606 15.9807 12.9148C16.5729 12.669 17.2078 12.5423 17.849 12.542C18.4902 12.5417 19.1252 12.6677 19.7178 12.9129C20.3103 13.1581 20.8487 13.5176 21.3024 13.971C21.756 14.4243 22.116 14.9626 22.3616 15.5552C22.6073 16.1477 22.7339 16.7828 22.7343 17.4243L22.7329 17.4266ZM17.3126 18.4668C17.2407 18.3981 17.186 18.3474 17.1318 18.295C16.78 17.9435 16.4328 17.5871 16.0752 17.242C15.8062 16.9824 15.4314 17.0159 15.2325 17.3044C15.0778 17.5279 15.1081 17.7993 15.3274 18.0209C15.8306 18.5302 16.3379 19.0349 16.8447 19.5406C17.1743 19.869 17.4424 19.8676 17.7756 19.5343C18.8003 18.5115 19.8231 17.4884 20.844 16.465C20.8992 16.4135 20.9504 16.3581 20.9973 16.299C21.0737 16.195 21.1103 16.067 21.1003 15.9382C21.0904 15.8095 21.0346 15.6886 20.9432 15.5976C20.8517 15.5065 20.7306 15.4513 20.6019 15.442C20.4732 15.4327 20.3454 15.4699 20.2418 15.5468C20.1661 15.6091 20.0948 15.6765 20.0284 15.7485L17.3126 18.4668Z" stroke="currentColor " stroke-width="0.3"/>
<path d="M17.3132 18.4669L20.0303 15.7486C20.0967 15.6766 20.168 15.6092 20.2437 15.5469C20.3473 15.47 20.4751 15.4328 20.6038 15.4421C20.7325 15.4514 20.8536 15.5066 20.9451 15.5977C21.0365 15.6887 21.0923 15.8096 21.1022 15.9383C21.1122 16.067 21.0756 16.195 20.9992 16.2991C20.9523 16.3581 20.9011 16.4136 20.8459 16.4651C19.8236 17.4885 18.8007 18.5116 17.7775 19.5343C17.4443 19.8677 17.1762 19.869 16.8466 19.5407C16.3398 19.035 15.8325 18.5303 15.3293 18.021C15.11 17.7993 15.0797 17.528 15.2344 17.3045C15.4333 17.0164 15.8081 16.9825 16.0771 17.2421C16.4347 17.5872 16.7819 17.9436 17.1337 18.2951C17.1866 18.3475 17.2413 18.3982 17.3132 18.4669Z" fill="currentColor " stroke="currentColor " stroke-width="0.1"/>
</svg>
