<svg width="1em" height="1em" viewBox="0 0 25 24" fill="none" xmlns="http://www.w3.org/2000/svg">
<path d="M21.5259 10.7178L19.487 6.62819L19.4732 6.6005H19.4422H15.9738V5.17354H19.9114C20.0423 5.17354 20.1707 5.21021 20.2822 5.27949C20.3937 5.34877 20.4841 5.44795 20.5431 5.56603L21.5259 10.7178ZM21.5259 10.7178L22.7915 10.0769L20.5431 5.56608L21.5259 10.7178Z" fill="currentColor" stroke="currentColor" stroke-width="0.1"/>
<path d="M10.5979 18.0795V16.6525H16.2249V18.0795H10.5979Z" fill="currentColor" stroke="currentColor" stroke-width="0.1"/>
<path d="M5.93234 18.0797L5.93234 18.0797H5.93109H3.30726V18.0797L3.30601 18.0797C3.21175 18.0821 3.11797 18.0654 3.03018 18.0307C2.94239 17.9959 2.86235 17.9438 2.79479 17.8773C2.72723 17.8108 2.67352 17.7314 2.63684 17.6436C2.60015 17.5558 2.58125 17.4615 2.58125 17.3662C2.58125 17.271 2.60015 17.1767 2.63684 17.0889C2.67352 17.0011 2.72723 16.9217 2.79479 16.8552C2.86235 16.7887 2.94239 16.7366 3.03018 16.7018C3.11797 16.6671 3.21175 16.6504 3.30601 16.6528L3.30601 16.6528H3.30726H5.93109V16.6528L5.93234 16.6528C6.0266 16.6504 6.12038 16.6671 6.20817 16.7018C6.29596 16.7366 6.376 16.7887 6.44356 16.8552C6.51112 16.9217 6.56483 17.0011 6.60151 17.0889C6.6382 17.1767 6.6571 17.271 6.6571 17.3662C6.6571 17.4615 6.6382 17.5558 6.60151 17.6436C6.56483 17.7314 6.51112 17.8108 6.44356 17.8773C6.376 17.9438 6.29596 17.9959 6.20817 18.0307C6.12038 18.0654 6.0266 18.0821 5.93234 18.0797Z" fill="currentColor" stroke="currentColor" stroke-width="0.1"/>
<path d="M16.6791 9.7082H16.7291L15.9224 3.60033C16.0218 3.60033 16.1203 3.62009 16.2121 3.65848C16.3039 3.69686 16.3874 3.75313 16.4577 3.82405C16.5279 3.89498 16.5837 3.97917 16.6217 4.07183C16.6597 4.16448 16.6792 4.26378 16.6791 4.36405V9.6582V9.7082ZM22.9109 16.6544H22.9609V16.6044V12.667V12.65L22.9506 12.6365L21.8481 11.2047L21.8331 11.1852H21.8085H15.9224C15.735 11.1852 15.5552 11.1101 15.4225 10.9763C15.2899 10.8425 15.2153 10.6609 15.2153 10.4714V5.1273V5.0773H15.1653H3.30726V5.07728L3.306 5.07732C3.21175 5.07968 3.11796 5.063 3.03017 5.02825C2.94238 4.99349 2.86235 4.94135 2.79479 4.87489C2.72723 4.80842 2.67352 4.72896 2.63684 4.64119C2.60015 4.55341 2.58125 4.4591 2.58125 4.36382C2.58125 4.26853 2.60015 4.17423 2.63684 4.08645C2.67352 3.99867 2.72723 3.91922 2.79479 3.85275C2.86235 3.78628 2.94238 3.73415 3.03017 3.69939C3.11796 3.66463 3.21175 3.64795 3.306 3.65032L3.306 3.65033H3.30726H15.9224C16.0152 3.65033 16.1071 3.66877 16.1928 3.70461C16.2786 3.74045 16.3565 3.79299 16.4221 3.85924C16.4878 3.9255 16.5399 4.00418 16.5754 4.0908C16.6109 4.17742 16.6292 4.27026 16.6291 4.36402V4.36405V9.7082V9.7582H16.6791H22.1791H22.1792C22.2869 9.75811 22.3932 9.7829 22.49 9.83068C22.5868 9.87847 22.6715 9.94798 22.7376 10.0339L22.7376 10.034L24.2261 11.9679L24.2262 11.9679C24.3226 12.0931 24.3749 12.2472 24.3748 12.4058V12.4058V17.3681C24.3748 17.5574 24.3002 17.7389 24.1677 17.8726C24.0351 18.0063 23.8554 18.0813 23.6681 18.0813H20.8174C20.6333 18.0766 20.4583 17.9995 20.3296 17.8664C20.2007 17.7331 20.1285 17.5542 20.1285 17.3679C20.1285 17.1815 20.2007 17.0026 20.3296 16.8694C20.4583 16.7363 20.6333 16.6592 20.8174 16.6544H22.9109Z" fill="currentColor" stroke="currentColor" stroke-width="0.1"/>
<path d="M18.5424 15.7692L18.5424 15.7692C18.233 15.7696 17.9308 15.8625 17.6739 16.0361C17.4169 16.2096 17.2169 16.4561 17.0988 16.7442C16.9808 17.0324 16.9502 17.3493 17.0107 17.655C17.0712 17.9607 17.2202 18.2415 17.439 18.4618C17.6578 18.6822 17.9364 18.8323 18.2398 18.893C18.5432 18.9537 18.8577 18.9224 19.1434 18.8029C19.4291 18.6834 19.6732 18.4813 19.8449 18.222C20.0166 17.9627 20.1082 17.6579 20.1082 17.3462V17.3462C20.1078 16.9279 19.9427 16.5267 19.6492 16.231C19.3556 15.9352 18.9575 15.7691 18.5424 15.7692ZM18.5424 20.3502C17.9535 20.3502 17.3779 20.174 16.8882 19.844C16.3985 19.514 16.0168 19.0449 15.7914 18.4959C15.5659 17.947 15.507 17.3429 15.6219 16.7601C15.7368 16.1773 16.0205 15.642 16.437 15.2219C16.8534 14.8018 17.384 14.5158 17.9616 14.3999C18.5391 14.2841 19.1378 14.3435 19.6818 14.5708C20.2259 14.7982 20.691 15.1831 21.0182 15.6771C21.3455 16.1711 21.5202 16.752 21.5202 17.3462C21.5193 18.1427 21.2052 18.9064 20.6469 19.4695C20.0886 20.0327 19.3317 20.3493 18.5424 20.3502Z" fill="currentColor" stroke="currentColor" stroke-width="0.1"/>
<path d="M8.20158 15.7692H8.20154C7.89214 15.7692 7.58973 15.8618 7.33254 16.0351C7.07536 16.2084 6.87498 16.4548 6.75667 16.7429C6.63836 17.031 6.60741 17.348 6.66772 17.6538C6.72803 17.9596 6.8769 18.2406 7.09557 18.4612C7.31425 18.6817 7.59292 18.832 7.89636 18.8929C8.19981 18.9538 8.51433 18.9225 8.80014 18.8031C9.08595 18.6837 9.33016 18.4815 9.50195 18.2222C9.67373 17.9628 9.76539 17.658 9.76539 17.3462V17.3462C9.76501 16.9282 9.60023 16.5274 9.30709 16.2317C9.01394 15.936 8.61635 15.7696 8.20158 15.7692ZM8.20148 20.3502C7.61266 20.3502 7.03703 20.174 6.54738 19.844C6.0577 19.514 5.67598 19.0449 5.45055 18.4959C5.22512 17.947 5.16613 17.3429 5.28106 16.7601C5.39599 16.1773 5.67966 15.642 6.09613 15.2219C6.5126 14.8018 7.04316 14.5158 7.6207 14.3999C8.19823 14.2841 8.79686 14.3435 9.34092 14.5708C9.88497 14.7982 10.3501 15.1831 10.6773 15.6771C11.0045 16.1711 11.1792 16.7519 11.1792 17.3462C11.1784 18.1427 10.8643 18.9064 10.306 19.4695C9.7477 20.0327 8.99083 20.3493 8.20148 20.3502Z" fill="currentColor" stroke="currentColor" stroke-width="0.1"/>
<path d="M2.40003 14.212V14.2119L2.39878 14.212C2.30452 14.2143 2.21073 14.1977 2.12295 14.1629C2.03515 14.1282 1.95512 14.076 1.88756 14.0096C1.82 13.9431 1.76629 13.8636 1.72961 13.7759C1.69293 13.6881 1.67402 13.5938 1.67402 13.4985C1.67402 13.4033 1.69293 13.309 1.72961 13.2212C1.76629 13.1334 1.82 13.054 1.88756 12.9875C1.95512 12.921 2.03515 12.8689 2.12295 12.8342C2.21073 12.7994 2.30452 12.7827 2.39878 12.7851L2.39878 12.7851H2.40003H5.88121C6.0653 12.7899 6.24036 12.867 6.36908 13.0001C6.49796 13.1333 6.57017 13.3122 6.57017 13.4985C6.57017 13.6849 6.49796 13.8637 6.36908 13.997C6.24036 14.1301 6.0653 14.2072 5.88121 14.212H2.40003Z" fill="currentColor" stroke="currentColor" stroke-width="0.1"/>
<path d="M8.10968 10.9954C7.98096 11.1285 7.8059 11.2056 7.62182 11.2104H1.16376C0.979677 11.2056 0.804616 11.1285 0.675894 10.9954C0.547014 10.8621 0.474805 10.6832 0.474805 10.4969C0.474805 10.3105 0.547014 10.1316 0.675894 9.99837C0.804616 9.86526 0.979676 9.78818 1.16376 9.7834H7.62182C7.8059 9.78818 7.98096 9.86526 8.10968 9.99837C8.23856 10.1316 8.31077 10.3105 8.31077 10.4969C8.31077 10.6832 8.23856 10.8621 8.10968 10.9954Z" fill="currentColor" stroke="currentColor" stroke-width="0.1"/>
<path d="M2.40003 8.20985V8.20983L2.39878 8.20986C2.30452 8.21223 2.21074 8.19555 2.12295 8.16079C2.03516 8.12604 1.95512 8.0739 1.88756 8.00744C1.82 7.94097 1.76629 7.86151 1.72961 7.77374C1.69293 7.68596 1.67402 7.59166 1.67402 7.49637C1.67402 7.40109 1.69293 7.30679 1.72961 7.21901C1.76629 7.13124 1.82 7.05178 1.88756 6.98531C1.95512 6.91885 2.03516 6.86671 2.12295 6.83196C2.21074 6.7972 2.30452 6.78052 2.39878 6.78289L2.39878 6.7829H2.40003H8.85826C9.04234 6.78769 9.2174 6.86476 9.34612 6.99787C9.475 7.13114 9.54721 7.31003 9.54721 7.49637C9.54721 7.68272 9.475 7.86161 9.34612 7.99488C9.2174 8.12799 9.04234 8.20506 8.85826 8.20985H2.40003Z" fill="currentColor" stroke="currentColor" stroke-width="0.1"/>
</svg>
